<mxfile host="app.diagrams.net" modified="2024-07-06T18:15:31.633Z" agent="Mozilla/5.0 (Windows NT 10.0; Win64; x64) AppleWebKit/537.36 (KHTML, like Gecko) Chrome/126.0.0.0 Safari/537.36" etag="p5PJInC1ZxcFurRIpt36" version="24.6.4" type="device">
  <diagram name="Page-1" id="C0hM5cxPWAqIduHON3L8">
    <mxGraphModel dx="1798" dy="1393" grid="1" gridSize="10" guides="1" tooltips="1" connect="1" arrows="1" fold="1" page="1" pageScale="1" pageWidth="827" pageHeight="1169" math="0" shadow="0">
      <root>
        <mxCell id="0" />
        <mxCell id="1" parent="0" />
        <mxCell id="kmMkn5HgHCnQ1Vi-2L1m-3" value="VPC" style="points=[[0,0],[0.25,0],[0.5,0],[0.75,0],[1,0],[1,0.25],[1,0.5],[1,0.75],[1,1],[0.75,1],[0.5,1],[0.25,1],[0,1],[0,0.75],[0,0.5],[0,0.25]];outlineConnect=0;gradientColor=none;html=1;whiteSpace=wrap;fontSize=18;fontStyle=1;container=1;pointerEvents=0;collapsible=0;recursiveResize=0;shape=mxgraph.aws4.group;grIcon=mxgraph.aws4.group_vpc2;strokeColor=#8C4FFF;fillColor=none;verticalAlign=top;align=left;spacingLeft=30;fontColor=#AAB7B8;dashed=0;" vertex="1" parent="1">
          <mxGeometry x="1670" y="500" width="1940" height="1110" as="geometry" />
        </mxCell>
        <mxCell id="kmMkn5HgHCnQ1Vi-2L1m-5" value="Availability zone" style="sketch=0;outlineConnect=0;gradientColor=none;html=1;whiteSpace=wrap;fontSize=18;fontStyle=1;shape=mxgraph.aws4.group;grIcon=mxgraph.aws4.group_availability_zone;strokeColor=#545B64;fillColor=none;verticalAlign=top;align=left;spacingLeft=30;fontColor=#545B64;dashed=1;" vertex="1" parent="1">
          <mxGeometry x="1800" y="560" width="1760" height="390" as="geometry" />
        </mxCell>
        <mxCell id="kmMkn5HgHCnQ1Vi-2L1m-6" value="Availability zone" style="sketch=0;outlineConnect=0;gradientColor=none;html=1;whiteSpace=wrap;fontSize=18;fontStyle=1;shape=mxgraph.aws4.group;grIcon=mxgraph.aws4.group_availability_zone;strokeColor=#545B64;fillColor=none;verticalAlign=top;align=left;spacingLeft=30;fontColor=#545B64;dashed=1;" vertex="1" parent="1">
          <mxGeometry x="1810" y="1140" width="1730" height="370" as="geometry" />
        </mxCell>
        <mxCell id="kmMkn5HgHCnQ1Vi-2L1m-8" value="Public subnet" style="points=[[0,0],[0.25,0],[0.5,0],[0.75,0],[1,0],[1,0.25],[1,0.5],[1,0.75],[1,1],[0.75,1],[0.5,1],[0.25,1],[0,1],[0,0.75],[0,0.5],[0,0.25]];outlineConnect=0;gradientColor=none;html=1;whiteSpace=wrap;fontSize=18;fontStyle=1;container=1;pointerEvents=0;collapsible=0;recursiveResize=0;shape=mxgraph.aws4.group;grIcon=mxgraph.aws4.group_security_group;grStroke=0;strokeColor=#7AA116;fillColor=#F2F6E8;verticalAlign=top;align=left;spacingLeft=30;fontColor=#248814;dashed=0;" vertex="1" parent="1">
          <mxGeometry x="1890" y="610" width="760" height="300" as="geometry" />
        </mxCell>
        <mxCell id="kmMkn5HgHCnQ1Vi-2L1m-11" value="Public subnet" style="points=[[0,0],[0.25,0],[0.5,0],[0.75,0],[1,0],[1,0.25],[1,0.5],[1,0.75],[1,1],[0.75,1],[0.5,1],[0.25,1],[0,1],[0,0.75],[0,0.5],[0,0.25]];outlineConnect=0;gradientColor=none;html=1;whiteSpace=wrap;fontSize=18;fontStyle=1;container=1;pointerEvents=0;collapsible=0;recursiveResize=0;shape=mxgraph.aws4.group;grIcon=mxgraph.aws4.group_security_group;grStroke=0;strokeColor=#7AA116;fillColor=#F2F6E8;verticalAlign=top;align=left;spacingLeft=30;fontColor=#248814;dashed=0;" vertex="1" parent="1">
          <mxGeometry x="1890" y="1200" width="770" height="270" as="geometry" />
        </mxCell>
        <mxCell id="kmMkn5HgHCnQ1Vi-2L1m-13" value="Private subnet" style="points=[[0,0],[0.25,0],[0.5,0],[0.75,0],[1,0],[1,0.25],[1,0.5],[1,0.75],[1,1],[0.75,1],[0.5,1],[0.25,1],[0,1],[0,0.75],[0,0.5],[0,0.25]];outlineConnect=0;gradientColor=none;html=1;whiteSpace=wrap;fontSize=18;fontStyle=1;container=1;pointerEvents=0;collapsible=0;recursiveResize=0;shape=mxgraph.aws4.group;grIcon=mxgraph.aws4.group_security_group;grStroke=0;strokeColor=#00A4A6;fillColor=#E6F6F7;verticalAlign=top;align=left;spacingLeft=30;fontColor=#147EBA;dashed=0;" vertex="1" parent="1">
          <mxGeometry x="2750" y="610" width="720" height="270" as="geometry" />
        </mxCell>
        <mxCell id="kmMkn5HgHCnQ1Vi-2L1m-15" value="Private subnet" style="points=[[0,0],[0.25,0],[0.5,0],[0.75,0],[1,0],[1,0.25],[1,0.5],[1,0.75],[1,1],[0.75,1],[0.5,1],[0.25,1],[0,1],[0,0.75],[0,0.5],[0,0.25]];outlineConnect=0;gradientColor=none;html=1;whiteSpace=wrap;fontSize=18;fontStyle=1;container=1;pointerEvents=0;collapsible=0;recursiveResize=0;shape=mxgraph.aws4.group;grIcon=mxgraph.aws4.group_security_group;grStroke=0;strokeColor=#00A4A6;fillColor=#E6F6F7;verticalAlign=top;align=left;spacingLeft=30;fontColor=#147EBA;dashed=0;" vertex="1" parent="1">
          <mxGeometry x="2770" y="1200" width="680" height="250" as="geometry" />
        </mxCell>
        <mxCell id="kmMkn5HgHCnQ1Vi-2L1m-16" value="AWS Cloud" style="sketch=0;outlineConnect=0;gradientColor=none;html=1;whiteSpace=wrap;fontSize=18;fontStyle=1;shape=mxgraph.aws4.group;grIcon=mxgraph.aws4.group_aws_cloud;strokeColor=#858B94;fillColor=none;verticalAlign=top;align=left;spacingLeft=30;fontColor=#858B94;dashed=0;" vertex="1" parent="1">
          <mxGeometry x="1401" y="431" width="2290" height="1270" as="geometry" />
        </mxCell>
        <mxCell id="kmMkn5HgHCnQ1Vi-2L1m-17" value="" style="outlineConnect=0;dashed=0;verticalLabelPosition=bottom;verticalAlign=top;align=center;html=1;shape=mxgraph.aws3.internet_2;fillColor=#D2D3D3;gradientColor=none;fontStyle=1;fontSize=18;" vertex="1" parent="1">
          <mxGeometry x="1000" y="1010" width="79.5" height="54" as="geometry" />
        </mxCell>
        <mxCell id="kmMkn5HgHCnQ1Vi-2L1m-18" value="" style="sketch=0;outlineConnect=0;fontColor=#232F3E;gradientColor=none;fillColor=#8C4FFF;strokeColor=none;dashed=0;verticalLabelPosition=bottom;verticalAlign=top;align=center;html=1;fontSize=18;fontStyle=1;aspect=fixed;pointerEvents=1;shape=mxgraph.aws4.internet_gateway;" vertex="1" parent="1">
          <mxGeometry x="1620" y="998" width="78" height="78" as="geometry" />
        </mxCell>
        <mxCell id="kmMkn5HgHCnQ1Vi-2L1m-20" value="" style="endArrow=classic;html=1;rounded=0;fontStyle=1;fontSize=18;" edge="1" parent="1" target="kmMkn5HgHCnQ1Vi-2L1m-18">
          <mxGeometry width="50" height="50" relative="1" as="geometry">
            <mxPoint x="1090" y="1040" as="sourcePoint" />
            <mxPoint x="1290" y="1120" as="targetPoint" />
          </mxGeometry>
        </mxCell>
        <mxCell id="kmMkn5HgHCnQ1Vi-2L1m-21" value="" style="sketch=0;outlineConnect=0;fontColor=#232F3E;gradientColor=none;fillColor=#8C4FFF;strokeColor=none;dashed=0;verticalLabelPosition=bottom;verticalAlign=top;align=center;html=1;fontSize=18;fontStyle=1;aspect=fixed;pointerEvents=1;shape=mxgraph.aws4.nat_gateway;" vertex="1" parent="1">
          <mxGeometry x="2190" y="680" width="140" height="140" as="geometry" />
        </mxCell>
        <mxCell id="kmMkn5HgHCnQ1Vi-2L1m-22" value="" style="outlineConnect=0;dashed=0;verticalLabelPosition=bottom;verticalAlign=top;align=center;html=1;shape=mxgraph.aws3.application_load_balancer;fillColor=#F58536;gradientColor=none;fontStyle=1;fontSize=18;" vertex="1" parent="1">
          <mxGeometry x="2208" y="1265" width="122" height="125" as="geometry" />
        </mxCell>
        <mxCell id="kmMkn5HgHCnQ1Vi-2L1m-23" value="" style="sketch=0;outlineConnect=0;fontColor=#232F3E;gradientColor=none;fillColor=#ED7100;strokeColor=none;dashed=0;verticalLabelPosition=bottom;verticalAlign=top;align=center;html=1;fontSize=18;fontStyle=1;aspect=fixed;pointerEvents=1;shape=mxgraph.aws4.auto_scaling2;" vertex="1" parent="1">
          <mxGeometry x="2880" y="949" width="127" height="127" as="geometry" />
        </mxCell>
        <mxCell id="kmMkn5HgHCnQ1Vi-2L1m-24" value="" style="rounded=1;arcSize=10;dashed=1;strokeColor=#ff0000;fillColor=none;gradientColor=none;dashPattern=8 4;strokeWidth=2;fontStyle=1;fontSize=18;" vertex="1" parent="1">
          <mxGeometry x="2880" y="640" width="530" height="770" as="geometry" />
        </mxCell>
        <mxCell id="kmMkn5HgHCnQ1Vi-2L1m-25" value="" style="sketch=0;points=[[0,0,0],[0.25,0,0],[0.5,0,0],[0.75,0,0],[1,0,0],[0,1,0],[0.25,1,0],[0.5,1,0],[0.75,1,0],[1,1,0],[0,0.25,0],[0,0.5,0],[0,0.75,0],[1,0.25,0],[1,0.5,0],[1,0.75,0]];outlineConnect=0;fontColor=#232F3E;fillColor=#ED7100;strokeColor=#ffffff;dashed=0;verticalLabelPosition=bottom;verticalAlign=top;align=center;html=1;fontSize=18;fontStyle=1;aspect=fixed;shape=mxgraph.aws4.resourceIcon;resIcon=mxgraph.aws4.ec2;" vertex="1" parent="1">
          <mxGeometry x="3040" y="680" width="140" height="140" as="geometry" />
        </mxCell>
        <mxCell id="kmMkn5HgHCnQ1Vi-2L1m-26" value="" style="sketch=0;points=[[0,0,0],[0.25,0,0],[0.5,0,0],[0.75,0,0],[1,0,0],[0,1,0],[0.25,1,0],[0.5,1,0],[0.75,1,0],[1,1,0],[0,0.25,0],[0,0.5,0],[0,0.75,0],[1,0.25,0],[1,0.5,0],[1,0.75,0]];outlineConnect=0;fontColor=#232F3E;fillColor=#ED7100;strokeColor=#ffffff;dashed=0;verticalLabelPosition=bottom;verticalAlign=top;align=center;html=1;fontSize=18;fontStyle=1;aspect=fixed;shape=mxgraph.aws4.resourceIcon;resIcon=mxgraph.aws4.ec2;" vertex="1" parent="1">
          <mxGeometry x="3052" y="1240" width="128" height="128" as="geometry" />
        </mxCell>
        <mxCell id="kmMkn5HgHCnQ1Vi-2L1m-28" value="" style="endArrow=classic;html=1;rounded=0;fontStyle=1;fontSize=18;" edge="1" parent="1" source="kmMkn5HgHCnQ1Vi-2L1m-22">
          <mxGeometry width="50" height="50" relative="1" as="geometry">
            <mxPoint x="2710" y="1090" as="sourcePoint" />
            <mxPoint x="2830" y="1050" as="targetPoint" />
          </mxGeometry>
        </mxCell>
        <mxCell id="kmMkn5HgHCnQ1Vi-2L1m-30" value="NAT GATEWAY" style="text;strokeColor=none;align=center;fillColor=none;html=1;verticalAlign=middle;whiteSpace=wrap;rounded=0;fontStyle=1;fontSize=18;" vertex="1" parent="1">
          <mxGeometry x="2230" y="830" width="60" height="30" as="geometry" />
        </mxCell>
        <mxCell id="kmMkn5HgHCnQ1Vi-2L1m-31" value="EC2" style="text;strokeColor=none;align=center;fillColor=none;html=1;verticalAlign=middle;whiteSpace=wrap;rounded=0;fontStyle=1;fontSize=18;" vertex="1" parent="1">
          <mxGeometry x="3070" y="820" width="60" height="30" as="geometry" />
        </mxCell>
        <mxCell id="kmMkn5HgHCnQ1Vi-2L1m-32" value="ASG" style="text;strokeColor=none;align=center;fillColor=none;html=1;verticalAlign=middle;whiteSpace=wrap;rounded=0;fontStyle=1;fontSize=18;" vertex="1" parent="1">
          <mxGeometry x="2913.5" y="1076" width="60" height="30" as="geometry" />
        </mxCell>
        <mxCell id="kmMkn5HgHCnQ1Vi-2L1m-33" value="EC2" style="text;strokeColor=none;align=center;fillColor=none;html=1;verticalAlign=middle;whiteSpace=wrap;rounded=0;fontStyle=1;fontSize=18;" vertex="1" parent="1">
          <mxGeometry x="3086" y="1368" width="60" height="30" as="geometry" />
        </mxCell>
        <mxCell id="kmMkn5HgHCnQ1Vi-2L1m-34" value="APPLICATION&lt;div style=&quot;font-size: 18px;&quot;&gt;LOAD BALANCER&lt;/div&gt;" style="text;strokeColor=none;align=center;fillColor=none;html=1;verticalAlign=middle;whiteSpace=wrap;rounded=0;fontStyle=1;labelBackgroundColor=none;fontSize=18;" vertex="1" parent="1">
          <mxGeometry x="2180" y="1398" width="170" height="30" as="geometry" />
        </mxCell>
        <mxCell id="kmMkn5HgHCnQ1Vi-2L1m-35" value="INTERNET GATEWAY" style="text;strokeColor=none;align=center;fillColor=none;html=1;verticalAlign=middle;whiteSpace=wrap;rounded=0;fontStyle=1;fontSize=18;" vertex="1" parent="1">
          <mxGeometry x="1610" y="1076" width="101" height="30" as="geometry" />
        </mxCell>
        <mxCell id="kmMkn5HgHCnQ1Vi-2L1m-36" value="INTERNET" style="text;strokeColor=none;align=center;fillColor=none;html=1;verticalAlign=middle;whiteSpace=wrap;rounded=0;fontStyle=1;fontSize=18;" vertex="1" parent="1">
          <mxGeometry x="1009.75" y="1076" width="60" height="30" as="geometry" />
        </mxCell>
      </root>
    </mxGraphModel>
  </diagram>
</mxfile>
